<?xml version="1.0" encoding="UTF-8" standalone="no"?>
<svg
   xmlns:dc="http://purl.org/dc/elements/1.1/"
   xmlns:cc="http://creativecommons.org/ns#"
   xmlns:rdf="http://www.w3.org/1999/02/22-rdf-syntax-ns#"
   xmlns:svg="http://www.w3.org/2000/svg"
   xmlns="http://www.w3.org/2000/svg"
   xmlns:sodipodi="http://sodipodi.sourceforge.net/DTD/sodipodi-0.dtd"
   xmlns:inkscape="http://www.inkscape.org/namespaces/inkscape"
   width="53mm"
   height="53mm"
   viewBox="0 0 53 53"
   version="1.1"
   id="svg3277"
   sodipodi:docname="constitution.svg"
   inkscape:version="1.0.1 (3bc2e813f5, 2020-09-07)">
  <defs
     id="defs3271" />
  <sodipodi:namedview
     id="base"
     pagecolor="#ffffff"
     bordercolor="#666666"
     borderopacity="1.0"
     inkscape:pageopacity="0.0"
     inkscape:pageshadow="2"
     inkscape:zoom="1.4"
     inkscape:cx="216.29008"
     inkscape:cy="157.08319"
     inkscape:document-units="mm"
     inkscape:current-layer="g4534"
     inkscape:document-rotation="0"
     showgrid="false"
     inkscape:window-width="1920"
     inkscape:window-height="1017"
     inkscape:window-x="-8"
     inkscape:window-y="-8"
     inkscape:window-maximized="1" />
  <metadata
     id="metadata3274">
    <rdf:RDF>
      <cc:Work
         rdf:about="">
        <dc:format>image/svg+xml</dc:format>
        <dc:type
           rdf:resource="http://purl.org/dc/dcmitype/StillImage" />
        <dc:title />
      </cc:Work>
    </rdf:RDF>
  </metadata>
  <g
     inkscape:label="Layer 1"
     inkscape:groupmode="layer"
     id="layer1">
    <g
       id="g4543"
       transform="translate(-97.153397,-139.60143)">
      <rect
         ry="3.96875"
         rx="3.96875"
         style="fill:#222222;fill-opacity:1;fill-rule:nonzero;stroke:none;stroke-width:0.5;stroke-linecap:butt;stroke-linejoin:round;stroke-miterlimit:4;stroke-dasharray:none;stroke-dashoffset:0;stroke-opacity:0.909449;paint-order:normal"
         id="rect5363-5"
         width="52.916668"
         height="52.916668"
         x="97.153397"
         y="139.60143" />
      <g
         id="g4534">
        <rect
           ry="2.6458333"
           rx="2.6458333"
           y="142.24725"
           x="99.799225"
           height="47.625"
           width="47.625"
           id="rect5365-3"
           style="fill:#689f38;fill-opacity:1;fill-rule:nonzero;stroke:none;stroke-width:0.5;stroke-linecap:butt;stroke-linejoin:round;stroke-miterlimit:4;stroke-dasharray:none;stroke-dashoffset:0;stroke-opacity:0.909449;paint-order:normal" />
        <path
           inkscape:connector-curvature="0"
           id="path5369-5"
           d="m 98.60859,176.6431 v 8.33438 c 0,3.07816 2.47809,5.55624 5.55625,5.55624 h 38.89375 c 3.07816,0 5.55625,-2.47808 5.55625,-5.55624 v -8.33438 z"
           style="fill:#222222;fill-opacity:1;fill-rule:nonzero;stroke:none;stroke-width:0.5;stroke-linecap:butt;stroke-linejoin:round;stroke-miterlimit:4;stroke-dasharray:none;stroke-dashoffset:0;stroke-opacity:0.909449;paint-order:normal" />
        <text
           xml:space="preserve"
           style="font-style:normal;font-weight:normal;font-size:5.64444px;line-height:1.25;font-family:sans-serif;letter-spacing:0px;word-spacing:0px;fill:#000000;fill-opacity:1;stroke:none;stroke-width:0.264584"
           x="124.07741"
           y="186.55724"
           id="text2391-1-0-8-3-1"><tspan
             sodipodi:role="line"
             id="tspan2389-17-9-3-9-2"
             x="124.07741"
             y="186.55724"
             style="font-style:normal;font-variant:normal;font-weight:bold;font-stretch:normal;font-size:5.64444px;font-family:Arial;-inkscape-font-specification:Arial;text-align:center;text-anchor:middle;fill:#ffffff;fill-opacity:1;stroke-width:0.264584">TEXTUAL</tspan></text>
        <path
           style="fill:#222222;fill-opacity:1;stroke:none;stroke-width:0.5;stroke-opacity:1"
           d="m 126.0213,144.80343 c -0.85608,-0.003 -1.72142,0.45746 -2.13682,1.36323 -0.1518,0.33076 -0.19,0.53141 -0.1876,0.9958 0.002,0.47491 0.0442,0.66177 0.21084,0.98444 0.20362,0.39429 0.5651,0.79177 0.9338,1.01957 0.148,0.0915 0.34794,0.15546 0.54674,0.20723 0.0802,0.0209 0.1604,0.0431 0.22272,0.0625 0.006,0.0654 0.008,0.14956 0.012,0.26561 0.01,0.26635 0.016,0.65223 0.016,1.125 0,0.70952 -0.004,1.07114 -0.016,1.2578 -0.02,-0.004 -0.014,-0.003 -0.0352,-0.008 -0.1152,-0.0265 -0.26778,-0.0669 -0.44908,-0.1173 -0.36264,-0.10084 -0.83752,-0.24412 -1.35184,-0.41031 -1.97607,-0.6385 -3.18587,-0.85583 -4.03542,-0.6289 -0.32552,0.087 -0.58982,0.19212 -0.90227,0.42168 -0.31244,0.22956 -0.68097,0.57615 -1.29294,1.17202 -0.46639,0.45412 -0.7813,0.7258 -1.03095,0.87488 -0.24964,0.14908 -0.42671,0.18916 -0.69918,0.19172 -0.16996,0.002 -0.20798,-0.0188 -0.19534,-0.004 -0.004,-0.0234 -0.0116,-0.0583 -0.0118,-0.12506 v -0.4687 h -0.59794 -0.59738 v 0.262 c -0.0528,-0.0263 -0.1033,-0.048 -0.16432,-0.0822 -0.19532,-0.10922 -0.41479,-0.25031 -0.53485,-0.34778 -0.13208,-0.10724 -0.22596,-0.18732 -0.30075,-0.24598 -0.0748,-0.0587 -0.0968,-0.10052 -0.22686,-0.13694 -0.0162,-0.005 -0.0345,-0.006 -0.0584,-0.008 -0.0239,-0.002 -0.0837,0.007 -0.0858,0.008 -0.002,5.3e-4 -0.0925,0.0422 -0.0941,0.0434 -8e-4,5.3e-4 -0.0381,0.038 -0.0388,0.0388 -6.9e-4,7.9e-4 -0.0198,0.0227 -0.0274,0.0351 -0.0607,0.0993 -0.0451,0.14718 -0.0429,0.18346 0.004,0.0725 0.0162,0.12332 0.0269,0.19172 0.11998,0.76898 0.68453,1.5406 1.38286,1.89446 l 0.16432,0.0822 v 0.22272 0.12868 h -0.23048 -0.66404 l -0.34003,1.05885 c -0.15746,0.48664 -0.50027,1.53687 -0.76171,2.33578 -0.26158,0.79934 -0.7847,2.39618 -1.16014,3.54707 -0.37535,1.15065 -0.89289,2.74019 -1.15238,3.53105 l -0.41806,1.26555 h -0.91364 -1.63711 l 0.58601,0.6873 c 1.19325,1.40485 2.57872,2.14638 4.78524,2.57814 0.75059,0.14706 0.94884,0.16072 2.38693,0.1602 1.44174,-5.3e-4 1.63691,-0.0122 2.37505,-0.1602 2.07146,-0.41496 3.62754,-1.21915 4.66793,-2.44533 l 0.65629,-0.77721 -1.50016,-0.0429 -0.80461,-0.0233 -0.0744,-0.23823 c -0.0721,-0.22469 -0.27706,-0.85115 -0.4532,-1.39475 -0.1757,-0.54223 -0.47983,-1.49889 -0.67593,-2.12132 -0.19666,-0.6242 -0.40525,-1.27046 -0.4687,-1.45675 -0.056,-0.16446 -0.32628,-1.00908 -0.59738,-1.8557 -0.27134,-0.84737 -0.70905,-2.20141 -0.96893,-3.00757 l -0.52349,-1.63298 -0.65215,-0.0233 -0.23462,-0.008 v -0.0196 -0.0233 l 0.51574,-0.0238 c 0.21223,-0.01 0.42676,-0.0252 0.60564,-0.0429 0.17888,-0.0176 0.29983,-0.0304 0.41031,-0.0625 0.60041,-0.17438 1.11765,-0.42804 1.82418,-0.89452 0.49589,-0.3274 0.78686,-0.50551 1.00769,-0.58963 0.22084,-0.0841 0.38334,-0.0912 0.69143,-0.0744 0.54809,0.0298 0.84777,0.14774 2.01178,0.79685 0.41796,0.23309 0.90916,0.4995 1.1131,0.60152 0.51234,0.2563 1.35718,0.54854 1.80454,0.60151 l 0.0744,0.008 -0.043,3.0825 -0.0392,3.24994 -0.60926,1.23041 -0.66404,1.33584 0.043,3.89071 0.0392,3.57808 h -1.50024 -2.00401 v 0.94155 0.62063 l -0.76946,1.26969 c -0.44261,0.72996 -1.01774,1.6827 -1.28106,2.11357 -0.26471,0.43316 -0.50603,0.82566 -0.57412,0.95704 l -0.26975,0.5271 h 8.28528 c 2.16658,0 4.1376,-0.007 5.56606,-0.0156 0.71424,-0.004 1.29422,-0.01 1.69552,-0.0156 0.20064,-0.003 0.35722,-0.005 0.46508,-0.008 0.054,-0.002 0.0926,-0.002 0.1246,-0.004 0.016,-0.001 0.0306,-0.002 0.047,-0.004 0.008,-0.001 0.016,-0.003 0.0352,-0.008 0.01,-0.002 0.0502,-0.0194 0.0506,-0.0196 2.2e-4,-1e-4 0.0666,-0.0428 0.0666,-0.0429 1e-4,-1e-4 0.078,-0.18336 0.078,-0.18346 0,-5.3e-4 -0.004,-0.0465 -0.004,-0.047 -1e-4,-5.3e-4 -0.006,-0.0202 -0.008,-0.0274 -0.004,-0.0144 -0.008,-0.0233 -0.012,-0.031 -0.006,-0.0154 -0.014,-0.0251 -0.02,-0.0351 -0.01,-0.02 -0.021,-0.0403 -0.0352,-0.0625 -0.028,-0.0444 -0.064,-0.0982 -0.1096,-0.16434 -0.0912,-0.13228 -0.21514,-0.30732 -0.3514,-0.49195 -0.2694,-0.36504 -0.62842,-0.85403 -0.79736,-1.08624 -0.1702,-0.23394 -0.36258,-0.49252 -0.42944,-0.58188 -0.0588,-0.0785 -0.44778,-0.60837 -0.85524,-1.16427 l -0.69142,-0.94516 v -0.58188 -0.9064 l -1.77354,-0.0196 -1.28158,-0.0118 -0.0268,-3.64836 -0.0274,-3.95687 -0.1644,-0.28938 c -0.052,-0.0922 -0.34644,-0.6887 -0.617,-1.25781 l -0.46872,-0.98392 v -3.18327 -3.03134 l 0.1918,-0.0351 c 0.75122,-0.14676 1.35324,-0.42205 3.05046,-1.36736 0.95758,-0.53333 1.4897,-0.6781 2.02366,-0.60564 0.30172,0.0409 0.58558,0.1809 1.449,0.75396 0.95262,0.63226 1.8028,0.92372 2.72646,0.92604 0.1474,2.6e-4 0.1814,0.006 0.21496,0.008 8e-4,0.027 8e-4,0.0433 0,0.0703 -0.0362,0.002 -0.0848,0.008 -0.25372,0.008 h -0.63304 l -0.1794,0.49609 c -0.075,0.20894 -0.42486,1.2861 -0.79738,2.43758 -0.37218,1.15046 -0.80388,2.47225 -0.95652,2.93367 -0.154,0.46526 -0.58312,1.78258 -0.95706,2.93367 -0.3737,1.1504 -0.75818,2.3214 -0.848,2.58589 l -0.109,0.32401 -0.9064,0.0156 -1.57044,0.0238 0.44906,0.60513 c 0.72802,0.98556 2.05598,1.85851 3.47678,2.30891 1.8806,0.59614 4.35412,0.70104 6.39858,0.27698 0.89302,-0.18522 1.48826,-0.3928 2.2965,-0.78858 0.93206,-0.45642 1.5664,-0.96068 2.28152,-1.81643 l 0.49972,-0.59769 h -1.51516 -0.80512 l -0.0662,-0.19534 c -0.065,-0.19074 -0.2842,-0.86589 -0.4806,-1.48829 -0.197,-0.62397 -0.40308,-1.27304 -0.46456,-1.45675 -0.057,-0.1705 -0.25464,-0.77747 -0.43358,-1.33636 -0.1792,-0.55948 -0.39998,-1.25098 -0.49248,-1.53892 -0.1596,-0.49693 -0.727,-2.27099 -1.44538,-4.51962 l -0.38292,-1.20302 h -0.66404 -0.23048 v -0.0744 c 0,-0.0898 0.006,-0.11588 0.008,-0.1421 0.93506,-0.32552 1.66262,-1.14331 1.83502,-2.09187 l 0.1762,-0.95705 -0.87902,0.70694 c -0.139,0.11254 -0.41254,0.28623 -0.67954,0.43356 -0.1908,0.10534 -0.32784,0.1596 -0.46094,0.21498 v -0.35967 h -0.5979 -0.59738 v 0.47284 c 0,0.0682 -0.008,0.10236 -0.012,0.12454 -0.0212,2.6e-4 -0.0524,0.001 -0.1168,-0.0114 -0.2105,-0.0405 -0.37572,-0.10642 -0.60926,-0.26924 -0.23356,-0.16282 -0.52924,-0.42807 -0.95344,-0.84387 -0.68342,-0.66989 -1.11704,-1.0642 -1.53892,-1.3007 -0.42188,-0.23649 -0.82136,-0.29084 -1.34358,-0.28939 -0.94858,0.003 -1.5917,0.14002 -3.3595,0.70694 -0.4919,0.15774 -1.00128,0.30666 -1.40248,0.41806 -0.1944,0.054 -0.35878,0.098 -0.48834,0.12918 -0.002,-0.0583 -0.006,-0.10042 -0.008,-0.1757 -0.006,-0.28761 -0.004,-0.68922 0,-1.12913 l 0.012,-1.42214 0.0702,-0.0192 c 0.6541,-0.19308 1.14738,-0.63427 1.45726,-1.28933 0.1486,-0.31389 0.1912,-0.52263 0.1912,-0.94154 4e-5,-0.41847 -0.0444,-0.62787 -0.1954,-0.96066 -0.41204,-0.90853 -1.2766,-1.37543 -2.1327,-1.37873 z m 10.38646,11.70678 c 0.01,0.12846 0.0214,0.33739 0.0274,0.69557 0.012,0.7485 0.016,2.09388 0.016,4.48809 0,1.47476 -0.006,2.82454 -0.012,3.81269 -0.004,0.49408 -0.008,0.89716 -0.012,1.17926 -0.002,0.11922 -0.002,0.20457 -0.004,0.2775 -0.0402,0.004 -0.057,0.008 -0.1328,0.0118 -0.2677,0.0122 -0.76216,0.0156 -1.63298,0.0156 -0.74458,0 -1.23636,-0.005 -1.5353,-0.0156 -0.0582,-0.002 -0.073,-0.005 -0.1168,-0.008 0.004,-0.015 0.006,-0.0232 0.012,-0.0393 0.0532,-0.17404 0.1254,-0.40505 0.2067,-0.65215 0.33446,-1.01621 0.68544,-2.08174 1.20304,-3.66386 0.24034,-0.73469 0.72008,-2.21536 1.14876,-3.53519 0.42732,-1.31561 0.79206,-2.43656 0.832,-2.56677 z m -22.01571,0.1173 0.016,5.10925 0.0156,5.25394 h -1.7229 c -0.54107,0 -1.03874,-0.004 -1.39836,-0.0118 -0.12322,-0.003 -0.20159,-0.008 -0.28887,-0.0118 0.011,-0.0379 0.0176,-0.0609 0.031,-0.10542 0.0707,-0.23636 0.1741,-0.56023 0.28939,-0.91002 0.232,-0.70395 0.72593,-2.21979 1.10122,-3.37085 0.37518,-1.15073 0.8927,-2.73304 1.14877,-3.51607 0.25614,-0.78325 0.56073,-1.71046 0.67541,-2.0624 0.0467,-0.14322 0.0917,-0.26588 0.1328,-0.37466 z m 1.27382,0.008 c 0.0178,0.0426 0.0204,0.0411 0.0429,0.1018 0.13902,0.37538 0.37592,1.10818 0.82011,2.49959 0.26028,0.81531 0.69058,2.16491 0.95705,2.9962 0.26638,0.83104 0.69655,2.17702 0.95704,2.99206 0.26056,0.81526 0.51161,1.59767 0.55863,1.74253 -0.0797,0.003 -0.14826,0.009 -0.25787,0.0118 -0.34867,0.009 -0.83117,0.0114 -1.36322,0.0114 -0.85758,0 -1.34563,-0.003 -1.60921,-0.0156 -0.0715,-0.003 -0.0859,-0.007 -0.12506,-0.0118 -0.002,-0.0729 -0.002,-0.15776 -0.004,-0.27698 -0.004,-0.28211 -0.008,-0.6857 -0.0114,-1.17978 -0.006,-0.98815 -0.0118,-2.33793 -0.0118,-3.81268 0,-2.90228 -0.004,-4.29071 0.031,-4.92167 0.006,-0.10938 0.005,-0.0717 0.016,-0.13694 z m 22.01933,0.0156 c 0.002,0.005 0.002,0.003 0.004,0.008 0.1094,0.29817 0.30082,0.89779 0.66404,2.05466 0.1642,0.52274 0.64972,2.03828 1.30484,4.07055 0.46554,1.44404 0.81442,2.53723 1.04644,3.27732 0.116,0.37004 0.20462,0.65076 0.262,0.84387 0.008,0.0289 0.012,0.0413 0.02,0.0661 -0.0276,0.002 -0.0282,0.003 -0.0626,0.004 -0.27058,0.0116 -0.75554,0.0156 -1.5782,0.0156 h -1.69912 v -5.24205 c 0,-2.98428 -0.004,-4.39425 0.031,-5.01933 0.002,-0.0377 0.006,-0.0465 0.008,-0.0785 z"
           id="path4521-6" />
      </g>
    </g>
  </g>
</svg>
