<?xml version="1.0" encoding="UTF-8" standalone="no"?>
<svg
   xmlns:dc="http://purl.org/dc/elements/1.1/"
   xmlns:cc="http://creativecommons.org/ns#"
   xmlns:rdf="http://www.w3.org/1999/02/22-rdf-syntax-ns#"
   xmlns:svg="http://www.w3.org/2000/svg"
   xmlns="http://www.w3.org/2000/svg"
   xmlns:sodipodi="http://sodipodi.sourceforge.net/DTD/sodipodi-0.dtd"
   xmlns:inkscape="http://www.inkscape.org/namespaces/inkscape"
   width="53mm"
   height="53mm"
   viewBox="0 0 53 53"
   version="1.1"
   id="svg3277"
   sodipodi:docname="freedom.svg"
   inkscape:version="1.0.1 (3bc2e813f5, 2020-09-07)">
  <defs
     id="defs3271" />
  <sodipodi:namedview
     id="base"
     pagecolor="#ffffff"
     bordercolor="#666666"
     borderopacity="1.0"
     inkscape:pageopacity="0.0"
     inkscape:pageshadow="2"
     inkscape:zoom="0.9899495"
     inkscape:cx="176.77744"
     inkscape:cy="192.92819"
     inkscape:document-units="mm"
     inkscape:current-layer="layer1"
     inkscape:document-rotation="0"
     showgrid="false"
     inkscape:window-width="1920"
     inkscape:window-height="1017"
     inkscape:window-x="-8"
     inkscape:window-y="-8"
     inkscape:window-maximized="1" />
  <metadata
     id="metadata3274">
    <rdf:RDF>
      <cc:Work
         rdf:about="">
        <dc:format>image/svg+xml</dc:format>
        <dc:type
           rdf:resource="http://purl.org/dc/dcmitype/StillImage" />
        <dc:title></dc:title>
      </cc:Work>
    </rdf:RDF>
  </metadata>
  <g
     inkscape:label="Layer 1"
     inkscape:groupmode="layer"
     id="layer1">
    <g
       id="g4334"
       transform="translate(-41.590876,-84.038933)">
      <g
         id="g2687"
         transform="translate(-0.01012143)">
        <rect
           y="84.038933"
           x="41.600998"
           height="52.916668"
           width="52.916668"
           id="rect5349"
           style="fill:#222222;fill-opacity:1;fill-rule:nonzero;stroke:none;stroke-width:0.5;stroke-linecap:butt;stroke-linejoin:round;stroke-miterlimit:4;stroke-dasharray:none;stroke-dashoffset:0;stroke-opacity:0.909449;paint-order:normal"
           rx="3.96875"
           ry="3.96875" />
        <rect
           style="fill:#00796b;fill-opacity:1;fill-rule:nonzero;stroke:none;stroke-width:0.5;stroke-linecap:butt;stroke-linejoin:round;stroke-miterlimit:4;stroke-dasharray:none;stroke-dashoffset:0;stroke-opacity:0.909449;paint-order:normal"
           id="rect5351"
           width="47.625"
           height="47.625"
           x="44.246834"
           y="86.684769"
           rx="2.6458333"
           ry="2.6458333" />
        <path
           inkscape:connector-curvature="0"
           id="path5355"
           d="m 43.056206,121.0806 v 8.33438 c 0,3.07816 2.478088,5.55625 5.55625,5.55625 h 38.893751 c 3.078162,0 5.55625,-2.47809 5.55625,-5.55625 v -8.33438 z"
           style="fill:#222222;fill-opacity:1;fill-rule:nonzero;stroke:none;stroke-width:0.5;stroke-linecap:butt;stroke-linejoin:round;stroke-miterlimit:4;stroke-dasharray:none;stroke-dashoffset:0;stroke-opacity:0.909449;paint-order:normal" />
        <g
           id="text5359"
           style="font-style:normal;font-variant:normal;font-weight:500;font-stretch:normal;font-size:4.23333px;line-height:4.23333px;font-family:Montserrat;-inkscape-font-specification:'Montserrat Medium';text-align:center;letter-spacing:-0.264583px;text-anchor:middle;fill:#eeeeee;fill-opacity:1;fill-rule:nonzero;stroke:none;stroke-width:0.25;stroke-linecap:butt;stroke-linejoin:round;stroke-miterlimit:4;stroke-dasharray:none;stroke-dashoffset:0;stroke-opacity:0.909449;paint-order:normal"
           aria-label="TRADITION"
           transform="matrix(2,0,0,2,41.600999,84.038931)" />
        <path
           style="fill:#222222;fill-opacity:1;stroke-width:1"
           d="m 67.280158,126.66776 c -0.41551,-0.0879 -1.3173,-0.37818 -1.55247,-0.49979 -0.10754,-0.0556 -0.37664,-0.16056 -0.59804,-0.23325 -0.99888,-0.32791 -1.8244,-0.89566 -2.32753,-1.60074 -0.70013,-0.98114 -2.96114,-5.08349 -2.96405,-5.37793 -5.1e-4,-0.0624 0.0827,-0.25674 0.18516,-0.43197 0.45464,-0.77761 0.66632,-1.60827 0.54911,-2.1548 -0.0389,-0.1816 -0.0708,-0.41525 -0.0708,-0.51919 0,-0.2282 -0.0374,-0.24438 -0.77932,-0.33742 -0.32068,-0.0402 -0.66529,-0.10484 -0.76581,-0.14366 -0.16434,-0.0634 -0.18276,-0.10284 -0.18276,-0.39085 0,-0.17616 0.0337,-0.3411 0.0748,-0.36651 0.0529,-0.0327 0.0602,-0.25204 0.025,-0.75157 -0.1533,-2.17307 0.0662,-3.10079 0.9599,-4.05754 l 0.20819,-0.22288 -0.42761,-0.97045 c -0.39594,-0.89859 -1.32619,-3.25792 -1.49626,-3.79488 -0.12612,-0.39816 -0.32338,-1.4006 -0.40542,-2.06018 -0.0432,-0.34724 -0.10614,-0.73948 -0.1399,-0.87165 -0.0338,-0.13216 -0.0614,-0.52404 -0.0614,-0.87081 0,-0.34678 -0.0188,-0.81018 -0.0417,-1.029778 l -0.0417,-0.39927 -0.22566,0.24978 c -0.27684,0.306418 -0.6247,0.481168 -0.84686,0.425408 -0.0903,-0.0227 -0.28586,-0.1535 -0.43453,-0.290758 l -0.270292,-0.24954 v -0.54186 c 0,-0.31694 -0.02758,-0.54187 -0.06646,-0.54187 -0.10532,0 -0.0758,-0.746328 0.03534,-0.89326 0.14282,-0.18882 0.11964,-0.39946 -0.06858,-0.623138 -0.09138,-0.1086 -0.16614,-0.233378 -0.16614,-0.277288 0,-0.0439 -0.05026,-0.16492 -0.11168,-0.2689 -0.1046,-0.17708 -0.1046,-0.214518 0,-0.59075 0.06142,-0.22093 0.11168,-0.514746 0.11168,-0.652926 0,-0.240398 -0.014,-0.25617 -0.32228,-0.365698 -0.432902,-0.15376 -0.641972,-0.329834 -0.875886,-0.737672 -0.18384,-0.320538 -0.19622,-0.387154 -0.1968,-1.058624 -5.02e-4,-0.641134 0.0208,-0.772128 0.202972,-1.2445 0.240728,-0.624228 0.654606,-1.207666 1.07919,-1.521326 0.27565,-0.20363 0.315474,-0.26795 0.402704,-0.650372 0.11852,-0.51964 0.418222,-0.911736 0.895342,-1.171422 0.27563,-0.15002 0.46627,-0.19374 1.0543,-0.241872 0.3948,-0.03232 0.7813,-0.07862 0.85888,-0.10292 0.10828,-0.03392 0.1737,0.0017 0.28159,0.15316 0.1392,0.1955 0.56041,0.41184 0.80183,0.41184 0.10828,0 0.1203,0.03694 0.0887,0.272556 -0.0424,0.316402 0.0286,0.389262 0.38149,0.391368 0.12792,7.56e-4 0.34429,0.0324 0.48079,0.07032 0.30313,0.08418 0.70569,-0.0082 0.88133,-0.202296 0.19132,-0.211418 0.23287,-0.16104 0.23261,0.282164 -2.8e-4,0.49393 -0.1729,0.84718 -0.41414,0.847578 -0.19642,3.26e-4 -0.54747,0.216838 -0.68031,0.419582 -0.15162,0.231416 -0.0399,0.463204 0.32695,0.678184 0.3374,0.19772 0.37395,0.317036 0.15302,0.499374 -0.14624,0.12068 -0.14696,0.128 -0.0332,0.33171 0.15022,0.269036 0.1579,1.126216 0.0138,1.534692 -0.1749,0.495726 -0.72642,0.970684 -1.52052,1.309446 l -0.42975,0.18332 0.30092,0.42922 c 0.5569,0.794336 0.79172,1.362702 0.98732,2.38971 0.18732,0.98359 0.57,2.038908 1.15671,3.189948 1.00813,1.97782 1.11682,2.21659 1.42729,3.1354 0.16896,0.49998 0.30718,0.95605 0.30718,1.01347 0,0.0574 0.0301,0.1044 0.0669,0.1044 0.10062,0 3.00716,-0.52651 3.02942,-0.54877 0.0261,-0.0261 0.16012,-1.10535 0.16012,-1.28977 0,-0.12506 -0.22875,-0.26504 -1.5119,-0.92516 -2.19873,-1.13115 -3.03666,-1.56736 -3.06922,-1.59778 -0.0158,-0.0148 -3.2e-4,-0.0554 0.0344,-0.0901 0.04,-0.04 0.25813,-0.0164 0.59369,0.0645 0.29175,0.0702 0.90428,0.21716 1.36118,0.32651 0.45689,0.10934 1.33268,0.32008 1.94619,0.46829 0.61351,0.14822 1.15483,0.26948 1.20293,0.26948 0.11432,0 0.97123,-0.64909 0.97123,-0.73569 0,-0.10264 -1.73946,-3.547818 -1.80397,-3.57296 -0.0313,-0.012 -0.0568,-0.06452 -0.0568,-0.1163 0,-0.05178 -0.0299,-0.09414 -0.0665,-0.09414 -0.0366,0 -0.0665,-0.04526 -0.0665,-0.10058 0,-0.09868 -0.1275,-0.365576 -0.20594,-0.431072 -0.0219,-0.0182 -0.0393,-0.08326 -0.0388,-0.1444 10e-4,-0.11328 0.18422,0.07362 1.63945,1.672914 0.41573,0.4569 1.00939,1.10735 1.31923,1.445448 l 0.56336,0.61473 h 0.57571 0.57572 l 0.17504,-0.84733 c 0.0963,-0.466028 0.31348,-1.52021 0.48271,-2.342618 0.16922,-0.822408 0.31645,-1.504086 0.32718,-1.51484 0.0221,-0.02212 0.0707,0.744572 0.16992,2.67784 0.0375,0.73103 0.0844,1.539808 0.10434,1.797278 l 0.0362,0.46814 0.51066,0.19644 c 0.28086,0.10804 0.5301,0.19644 0.55386,0.19644 0.0509,0 2.97874,-2.706998 3.30167,-3.052668 0.24871,-0.266216 0.34781,-0.301018 0.2963,-0.10406 -0.019,0.0731 -0.0612,0.13292 -0.0935,0.13292 -0.0323,0 -0.0587,0.04488 -0.0587,0.09968 0,0.05484 -0.0264,0.09968 -0.0587,0.09968 -0.0323,0 -0.0758,0.0523 -0.0968,0.1163 -0.0371,0.11322 -0.27956,0.54516 -0.49438,0.88056 -0.0585,0.0914 -0.47169,0.802178 -0.91814,1.579548 l -0.81173,1.41341 0.29311,0.20166 0.29311,0.20166 1.11274,-0.30812 c 0.612,-0.16948 1.67809,-0.47106 2.36908,-0.67017 0.69099,-0.19912 1.27772,-0.3536 1.30386,-0.3433 0.0261,0.0102 -0.84584,0.60189 -1.93771,1.31462 -1.40954,0.92013 -1.97622,1.32483 -1.9542,1.39561 0.017,0.0548 0.11292,0.32398 0.213,0.59811 0.16334,0.44736 0.18338,0.59718 0.19568,1.46207 0.0134,0.93963 0.019,0.97521 0.23368,1.42882 0.19062,0.40315 0.22344,0.5501 0.24595,1.10157 0.0224,0.54842 0.007,0.67435 -0.11422,0.91115 -0.18202,0.35676 -0.1773,0.41901 0.0481,0.63498 0.12978,0.12434 0.37248,0.22972 0.78087,0.33906 1.13191,0.30306 2.22495,0.82916 2.57686,1.24029 0.36956,0.43175 0.58526,0.9572 0.67881,1.65362 0.17512,1.30361 0.23952,6.54218 0.27566,7.48507 l 0.0372,0.97009 -0.38345,0.7578 c -0.52368,1.03493 -0.89152,1.58779 -1.26051,1.89454 -0.17124,0.14238 -0.51655,0.52801 -0.7673,0.85698 -0.25077,0.32896 -0.58507,0.7213 -0.74291,0.87187 -0.56591,0.53986 -1.74504,1.43368 -2.3726,1.79851 -0.35151,0.20434 -0.86341,0.51306 -1.13755,0.686 -0.7774,0.49044 -1.41211,0.78647 -2.42307,1.13014 -0.51316,0.17444 -1.23323,-4.12902 -1.60016,-3.99765 -0.68332,0.24465 -1.61001,0.44232 -2.02438,0.43182 -0.12794,-0.003 -0.36718,-0.0344 -0.53166,-0.0691 z m 0.64856,-16.35408 c 0.17934,-0.19144 0.28184,-0.46379 0.28184,-0.74886 0,-0.20297 -0.0295,-0.23821 -0.29911,-0.35747 -0.1645,-0.0728 -0.46087,-0.2853 -0.65858,-0.47229 l -0.35948,-0.33998 -0.7204,0.22402 c -0.89678,0.27887 -0.92888,0.34814 -0.38565,0.83231 0.26716,0.23811 0.51438,0.38372 0.85962,0.50628 0.26655,0.0946 0.61525,0.24671 0.7749,0.33798 0.35345,0.20205 0.33507,0.2014 0.50686,0.018 z m -1.07452,-3.28038 c 0.0203,-0.0771 -0.0178,-0.25659 -0.0847,-0.39874 l -0.12166,-0.25847 -1.66094,-0.0144 -1.66095,-0.0144 0.34698,0.18058 c 0.2213,0.11518 0.42275,0.2889 0.55619,0.47964 0.11508,0.16448 0.3581,0.45248 0.54006,0.63999 l 0.33084,0.34093 0.8586,-0.40739 c 0.62379,-0.29597 0.86871,-0.44575 0.89558,-0.54766 z"
           id="path4587"
           inkscape:connector-curvature="0"
           sodipodi:nodetypes="cccccscsccsccccccccsccccccssccsccsccccccccccscccscccccccccccscsscsscccccsscsssccscccccccscccsccssscccccccccscccccccccccccccccsccccccsccccccccccccccccccccc" />
      </g>
      <text
         xml:space="preserve"
         style="font-style:normal;font-weight:normal;font-size:5.64444px;line-height:1.25;font-family:sans-serif;letter-spacing:0px;word-spacing:0px;fill:#000000;fill-opacity:1;stroke:none;stroke-width:0.264583"
         x="68.24762"
         y="130.96516"
         id="text2391-1-0-8-2"><tspan
           sodipodi:role="line"
           id="tspan2389-17-9-3-1"
           x="68.24762"
           y="130.96516"
           style="font-style:normal;font-variant:normal;font-weight:bold;font-stretch:normal;font-size:5.64444px;font-family:Arial;-inkscape-font-specification:Arial;text-align:center;text-anchor:middle;fill:#ffffff;fill-opacity:1;stroke-width:0.264583">FREEDOM</tspan></text>
    </g>
  </g>
</svg>
