<?xml version="1.0" encoding="UTF-8" standalone="no"?>
<svg
   xmlns:dc="http://purl.org/dc/elements/1.1/"
   xmlns:cc="http://creativecommons.org/ns#"
   xmlns:rdf="http://www.w3.org/1999/02/22-rdf-syntax-ns#"
   xmlns:svg="http://www.w3.org/2000/svg"
   xmlns="http://www.w3.org/2000/svg"
   xmlns:sodipodi="http://sodipodi.sourceforge.net/DTD/sodipodi-0.dtd"
   xmlns:inkscape="http://www.inkscape.org/namespaces/inkscape"
   width="53mm"
   height="53mm"
   viewBox="0 0 53 53"
   version="1.1"
   id="svg3277"
   sodipodi:docname="globalism.svg"
   inkscape:version="1.0.1 (3bc2e813f5, 2020-09-07)">
  <defs
     id="defs3271" />
  <sodipodi:namedview
     id="base"
     pagecolor="#ffffff"
     bordercolor="#666666"
     borderopacity="1.0"
     inkscape:pageopacity="0.0"
     inkscape:pageshadow="2"
     inkscape:zoom="0.9899495"
     inkscape:cx="176.77744"
     inkscape:cy="192.92819"
     inkscape:document-units="mm"
     inkscape:current-layer="layer1"
     inkscape:document-rotation="0"
     showgrid="false"
     inkscape:window-width="1920"
     inkscape:window-height="1017"
     inkscape:window-x="-8"
     inkscape:window-y="-8"
     inkscape:window-maximized="1" />
  <metadata
     id="metadata3274">
    <rdf:RDF>
      <cc:Work
         rdf:about="">
        <dc:format>image/svg+xml</dc:format>
        <dc:type
           rdf:resource="http://purl.org/dc/dcmitype/StillImage" />
        <dc:title></dc:title>
      </cc:Work>
    </rdf:RDF>
  </metadata>
  <g
     inkscape:label="Layer 1"
     inkscape:groupmode="layer"
     id="layer1">
    <g
       id="g4171"
       transform="translate(13.971624,-84.038933)">
      <rect
         ry="3.96875"
         rx="3.96875"
         style="fill:#222222;fill-opacity:1;fill-rule:nonzero;stroke:none;stroke-width:0.5;stroke-linecap:butt;stroke-linejoin:round;stroke-miterlimit:4;stroke-dasharray:none;stroke-dashoffset:0;stroke-opacity:0.909449;paint-order:normal"
         id="rect5134"
         width="52.916668"
         height="52.916668"
         x="-13.971624"
         y="84.038933" />
      <rect
         ry="2.6458333"
         rx="2.6458333"
         y="86.684769"
         x="-11.32579"
         height="47.625"
         width="47.625"
         id="rect5136"
         style="fill:#7cd1ff;fill-opacity:1;fill-rule:nonzero;stroke:none;stroke-width:0.5;stroke-linecap:butt;stroke-linejoin:round;stroke-miterlimit:4;stroke-dasharray:none;stroke-dashoffset:0;stroke-opacity:0.909449;paint-order:normal" />
      <path
         style="fill:#222222;fill-opacity:1;fill-rule:nonzero;stroke:none;stroke-width:0.5;stroke-linecap:butt;stroke-linejoin:round;stroke-miterlimit:4;stroke-dasharray:none;stroke-dashoffset:0;stroke-opacity:0.909449;paint-order:normal"
         d="m -12.516417,121.0806 v 8.33438 c 0,3.07816 2.478088,5.55625 5.5562496,5.55625 H 31.933584 c 3.078162,0 5.55625,-2.47809 5.55625,-5.55625 v -8.33438 z"
         id="rect5205"
         inkscape:connector-curvature="0" />
      <path
         style="fill:#222222;fill-opacity:1;stroke-width:1"
         d="m 8.5009856,89.523234 c -0.582436,0 -1.164928,0.0152 -1.498098,0.046 -3.821982,0.35297 -7.16083003,1.709994 -10.10171,4.10931 -0.63282,0.516286 -1.879008,1.76114 -2.413808,2.41019 -2.370732,2.877198 -3.741946,6.193026 -4.121196,9.957016 -0.0769,0.76304 -0.08802,2.43088 -0.0196,3.1719 0.358262,3.8812 1.76006,7.27631 4.226616,10.23813 0.203982,0.24494 0.671404,0.7422 1.06247,1.13327 0.977642,0.97764 1.733364,1.6003 2.851504,2.34352 2.527194,1.67983 5.563934,2.72312 8.574154,2.94143 0.296542,0.0215 0.620094,0.0434 0.71882,0.0506 0.421758,0.0308 1.79152,-0.0144 2.3988204,-0.0703 2.275008,-0.20922 4.395322,-0.81288 6.44922,-1.83607 5.336878,-2.65868 9.05818,-7.80554 9.89035,-13.67565 0.13994,-0.98691 0.18482,-1.62037 0.18346,-2.65617 -0.003,-2.04062 -0.297704,-3.85462 -0.941028,-5.77743 -0.718526,-2.14756 -1.82785,-4.115312 -3.332096,-5.921598 -0.471062,-0.565648 -1.639926,-1.73494 -2.195214,-2.19573 -2.983374,-2.475658 -6.349538,-3.863694 -10.2345184,-4.222482 -0.333172,-0.03076 -0.915662,-0.046 -1.4981,-0.046 z m -4.251936,2.862356 c -0.910086,0.995274 -1.906266,2.302168 -2.668056,3.562576 -0.369354,0.611114 -0.92536403,1.67436 -1.25367003,2.398302 -0.0543,0.11976 -0.10332,0.226172 -0.1447,0.312642 -0.02112,-0.0082 -0.03034,-0.0098 -0.05478,-0.0196 -0.15388,-0.0623 -0.372864,-0.16122 -0.613398,-0.273366 -0.481066,-0.224282 -1.06242397,-0.514574 -1.48414597,-0.749828 -0.300532,-0.16764 -0.65764,-0.37701 -0.941544,-0.55087 -0.11884,-0.07276 -0.213662,-0.13396 -0.296624,-0.18758 0.03924,-0.0448 0.07104,-0.08502 0.12092,-0.13694 1.297686,-1.350602 2.67108997,-2.378818 4.304646,-3.22616 0.895386,-0.46444 2.026934,-0.848054 3.031342,-1.12913 z m 8.4919884,0.0042 c 2.443522,0.674874 4.84976,1.953194 6.648692,3.663858 0.302982,0.28812 0.557294,0.540128 0.730186,0.722436 0.03986,0.04204 0.05942,0.06388 0.08992,0.09766 -0.08618,0.0558 -0.18428,0.12112 -0.304376,0.19534 -0.283296,0.17512 -0.625464,0.380104 -0.867646,0.515728 -0.207246,0.11606 -0.679238,0.358522 -1.030946,0.531236 -0.351494,0.1726 -0.822618,0.388904 -1.02371,0.47284 l -0.16382,0.07028 -0.04702,-0.10956 c -0.250776,-0.56227 -0.997176,-2.016362 -1.261422,-2.4567 -0.795376,-1.325372 -1.79788,-2.634246 -2.769858,-3.703132 z m -5.3671164,0.0192 c 0.0024,0.205092 0.0058,0.423778 0.0078,0.73484 0.0048,0.784296 0.0078,1.867478 0.0078,3.05821 v 4.0783 h -0.06254 c -0.851272,-0.0134 -2.510842,-0.24237 -3.675744,-0.511592 -0.41805,-0.09662 -0.813594,-0.200614 -1.101226,-0.285252 -0.10208,-0.03004 -0.16894,-0.05452 -0.238228,-0.07804 0.04518,-0.1039 0.10522,-0.233958 0.1757,-0.38292 0.15092,-0.318966 0.342836,-0.7007 0.49196,-0.976686 0.941132,-1.741768 1.91701,-3.100272 3.254066,-4.527374 0.19746,-0.21075 0.576898,-0.582714 0.906404,-0.894518 0.0894,-0.08458 0.15588,-0.14278 0.234092,-0.214974 z m 2.254126,0 c 0.05048,0.04614 0.08916,0.07804 0.14418,0.1292 0.2733304,0.254168 0.5896744,0.555568 0.7699784,0.74207 1.420298,1.469136 2.485402,2.924404 3.468522,4.738214 0.14018,0.258616 0.33142,0.649352 0.488342,0.98082 0.07498,0.15838 0.143,0.299438 0.1912,0.409792 -0.07906,0.02672 -0.16288,0.0529 -0.28112,0.0863 -1.302178,0.367954 -2.774018,0.637754 -4.148584,0.753964 -0.228196,0.0192 -0.5319584,0.0346 -0.6485404,0.0351 v -4.08606 c 0,-1.340002 0.006,-2.422996 0.0118,-3.168282 0.0022,-0.271784 0.00132,-0.443146 0.0042,-0.621152 z m -14.246158,6.23838 c 0.05566,0.03442 0.1076,0.06538 0.1757,0.10956 1.117922,0.725124 2.506026,1.45512 3.71088397,1.95285 0.06894,0.0285 0.0861,0.0404 0.12506,0.0589 -0.02762,0.0909 -0.04954,0.16378 -0.09766,0.32039 -0.52585597,1.71112 -0.89188397,3.772 -0.97409997,5.50355 l -2.885094,0.008 -2.859774,0.008 0.0082,-0.12144 c 0.0272,-0.46335 0.10662,-1.07565 0.22221,-1.70274 0.27382,-1.48554 0.810416,-3.03911 1.5043,-4.37545 0.309666,-0.59638 0.795982,-1.376698 1.070218,-1.761646 z m 26.2263064,0.0118 c 1.11921,1.65584 1.9146,3.33211 2.371432,5.15989 0.231158,0.92488 0.43078,2.2644 0.437184,2.7895 h -2.843754 c -0.852882,0 -1.629326,2.6e-4 -2.195216,-0.004 -0.282944,-0.002 -0.512916,-0.005 -0.671794,-0.008 -0.0152,-2.7e-4 -0.02124,2.6e-4 -0.03514,0 -6e-6,-0.002 0,-0.003 0,-0.004 -5.3e-4,-0.80951 -0.224568,-2.47268 -0.492478,-3.70314 -0.12686,-0.58271 -0.43456,-1.73579 -0.569992,-2.1208 0.0419,-0.019 0.07792,-0.0379 0.12868,-0.0589 1.194778,-0.49342 2.594924,-1.231338 3.707266,-1.952852 0.0631,-0.04092 0.11144,-0.06714 0.16382,-0.09766 z m -6.031672,2.57704 c 0.06784,-0.0215 0.08658,0.0158 0.219108,0.43667 0.454678,1.44419 0.827214,3.5191 0.872816,4.86327 l 0.0104,0.30592 -3.640602,0.009 c -2.893476,0.007 -3.6440604,2.1e-4 -3.6576604,-0.0357 -0.0096,-0.0248 -0.0134,-1.048 -0.0082,-2.27376 l 0.0092,-2.22881 0.35967,-0.0258 c 1.7994864,-0.1305 3.0880804,-0.32498 4.4669104,-0.67386 0.484786,-0.12266 1.111132,-0.29507 1.368394,-0.37672 z M 1.5262176,101.507 c 1.719546,0.53025 3.597752,0.88062 5.699396,1.02732 l 0.1447,0.0114 v 2.0314 2.01539 l -3.386874,0.008 c -1.134344,0.003 -2.04795,0.004 -2.675804,0 -0.31392803,-0.002 -0.55512603,-0.008 -0.71882003,-0.0118 -0.007,-1.6e-4 -0.0088,1.6e-4 -0.0156,0 0.0042,-0.0852 0.01,-0.17544 0.0196,-0.29714 0.02402,-0.30418 0.06478,-0.69638 0.10904,-1.05472 0.1374,-1.11254 0.43606603,-2.51591 0.74259003,-3.48816 0.04608,-0.14616 0.06134,-0.1868 0.08164,-0.24184 z m -8.949324,7.32771 h 2.847886 2.88303 c 0.0104,0.12092 0.03704,0.4638 0.0584,0.7581 0.11806,1.62691 0.436104,3.32009 0.92190997,4.91804 l 0.0584,0.18706 c -0.07578,0.0321 -0.15978,0.0698 -0.25373,0.10956 -1.13407997,0.47955 -2.66275397,1.29641 -3.58996197,1.91823 -0.04562,0.0306 -0.08452,0.0555 -0.12506,0.0817 -0.0106,-0.0142 -0.0156,-0.0188 -0.0274,-0.0351 -0.09136,-0.12674 -0.21622,-0.31431 -0.351398,-0.53123 -0.270356,-0.43383 -0.584458,-0.98287 -0.79685,-1.40611 -0.87588,-1.7454 -1.511922,-4.06015 -1.616956,-5.87872 z m 7.98452597,0 3.39462403,0.008 3.414262,0.0118 v 2.01177 2.0314 l -0.1447,0.0118 c -2.067886,0.14434 -3.637934,0.41336 -5.437394,0.93327 l -0.1757,0.0512 c -0.04896,0.0138 -0.10376,0.0276 -0.1447,0.0388 -0.0196,-0.0584 -0.03748,-0.11226 -0.06252,-0.19534 -0.07516,-0.24922 -0.1725,-0.59197 -0.261998,-0.95291 -0.29688603,-1.19721 -0.50090403,-2.54888 -0.57412803,-3.79305 z m 15.87913443,0 -0.0078,0.15658 c -0.09234,1.56885 -0.378474,3.19464 -0.828374,4.72633 -0.03038,0.10342 -0.04842,0.16868 -0.06614,0.22273 -0.0122,-0.004 -0.0098,-0.003 -0.02376,-0.008 -1.645988,-0.52278 -3.64904,-0.88168 -5.7185144,-1.02371 l -0.16432,-0.0114 v -2.0314 -2.0159 l 3.4142604,-0.008 z m 2.249992,0 h 2.878894 2.851506 c -0.0028,0.10152 -0.02014,0.36817 -0.04702,0.60152 -0.303378,2.62691 -1.148198,4.96257 -2.578136,7.12515 -0.06402,0.0968 -0.11834,0.1744 -0.16794,0.24598 -0.02354,-0.0154 -0.04078,-0.0259 -0.06614,-0.0429 -0.954134,-0.64046 -2.514456,-1.47583 -3.65249,-1.95699 -0.0939,-0.0396 -0.178,-0.0775 -0.25373,-0.10956 l 0.0584,-0.18706 c 0.49796,-1.63797 0.85619,-3.59009 0.941548,-5.15628 0.0104,-0.19146 0.02542,-0.41563 0.03514,-0.51986 z m -11.3011184,6.3283 v 4.16409 0.21859 c -2.66e-4,1.11664 -0.0048,2.16055 -0.0078,2.90628 -0.00132,0.32504 -0.00185,0.55765 -0.0036,0.76946 -0.0032,-0.003 -0.005,-0.005 -0.0082,-0.008 -0.225532,-0.20819 -0.512834,-0.481 -0.777214,-0.7462 -1.539238,-1.54407 -2.783402,-3.26179 -3.788916,-5.22656 -0.1299,-0.25381 -0.291478,-0.59486 -0.42168,-0.8785 -0.05538,-0.12066 -0.10328,-0.22148 -0.14108,-0.30902 0.03174,-0.0104 0.04598,-0.0188 0.0863,-0.031 0.21132,-0.0641 0.535878,-0.15054 0.968416,-0.25787 1.24006,-0.30774 2.776802,-0.54073 3.85196,-0.58963 z m 2.222602,0 0.234612,0.0118 c 0.6595564,0.0308 1.6118344,0.1408 2.4494624,0.28887 0.514688,0.091 1.19737,0.24745 1.745632,0.38706 0.274126,0.0698 0.516358,0.13468 0.683678,0.18706 0.0176,0.006 0.02336,0.007 0.03928,0.0118 -0.05078,0.11738 -0.12586,0.2845 -0.238228,0.52761 -1.088644,2.35448 -2.772164,4.66757 -4.6679324,6.42545 -0.08568,0.0795 -0.15442,0.14242 -0.23048,0.21135 -0.00106,-0.0474 -0.0032,-0.0441 -0.0042,-0.1018 -0.0082,-0.57236 -0.0118,-1.68209 -0.0118,-3.78529 z m -9.49606203,1.6521 c 0.02696,0.0544 0.04562,0.0905 0.1018,0.2191 0.95180603,2.17833 2.34231603,4.26978 3.92172203,6.04667 -0.28223,-0.0833 -0.598762,-0.18274 -0.83974,-0.26562 -1.943634,-0.66849 -3.74636003,-1.7102 -5.312338,-3.07423 -0.12034,-0.10482 -0.47506,-0.45255 -0.789098,-0.76533 -0.15408,-0.15346 -0.29889,-0.29936 -0.406178,-0.41031 0.11686,-0.077 0.26929,-0.17334 0.456818,-0.28526 0.400718,-0.23916 0.915562,-0.52935 1.355474,-0.75757 0.249132,-0.12924 0.62483797,-0.31128 0.95704797,-0.46509 0.264868,-0.12264 0.43796599934,-0.19498 0.554488,-0.24236 z m 16.76952043,0 c 0.203072,0.0776 0.570182,0.24103 1.031462,0.46922 0.52394,0.25919 1.097658,0.56248 1.492414,0.79272 0.394858,0.23027 0.658304,0.38715 0.804604,0.48834 -0.08066,0.0852 -0.18558,0.19652 -0.30489,0.31626 -0.241618,0.24251 -0.531194,0.5209 -0.722438,0.69556 -1.737236,1.58663 -3.998592,2.76731 -6.269902,3.41788 1.562512,-1.77594 2.920958,-3.79731 3.867464,-5.96088 0.05626,-0.1286 0.07428,-0.16466 0.10128,-0.2191 z"
         id="path4806-0" />
      <text
         xml:space="preserve"
         style="font-style:normal;font-weight:normal;font-size:5.64444px;line-height:1.25;font-family:sans-serif;letter-spacing:0px;word-spacing:0px;fill:#000000;fill-opacity:1;stroke:none;stroke-width:0.264583"
         x="12.379939"
         y="130.7267"
         id="text2391-1-0-8"><tspan
           sodipodi:role="line"
           id="tspan2389-17-9-3"
           x="12.379938"
           y="130.7267"
           style="font-style:normal;font-variant:normal;font-weight:bold;font-stretch:normal;font-size:5.64444px;font-family:Arial;-inkscape-font-specification:Arial;text-align:center;text-anchor:middle;fill:#ffffff;fill-opacity:1;stroke-width:0.264583">GLOBALISM</tspan></text>
    </g>
  </g>
</svg>
